<mxfile host="Electron" modified="2023-07-09T17:40:13.658Z" agent="Mozilla/5.0 (Windows NT 10.0; Win64; x64) AppleWebKit/537.36 (KHTML, like Gecko) draw.io/21.6.1 Chrome/112.0.5615.204 Electron/24.6.1 Safari/537.36" etag="DRxHZ7RX55akPaZLvSqU" version="21.6.1" type="device">
  <diagram name="Page-1" id="yozTlJzN3WICO9tj_UR2">
    <mxGraphModel dx="153" dy="394" grid="1" gridSize="10" guides="1" tooltips="1" connect="1" arrows="1" fold="1" page="1" pageScale="1" pageWidth="827" pageHeight="1169" math="0" shadow="0">
      <root>
        <mxCell id="0" />
        <mxCell id="1" parent="0" />
        <mxCell id="dRhbM2zjrjsyO_zI9-Dj-14" value="" style="curved=1;endArrow=classic;html=1;rounded=0;strokeColor=#457B9D;fontColor=#1D3557;fillColor=#A8DADC;entryX=0.5;entryY=0;entryDx=0;entryDy=0;strokeWidth=1;exitX=0.982;exitY=0.467;exitDx=0;exitDy=0;exitPerimeter=0;" parent="1" source="dRhbM2zjrjsyO_zI9-Dj-31" target="dRhbM2zjrjsyO_zI9-Dj-32" edge="1">
          <mxGeometry width="50" height="50" relative="1" as="geometry">
            <mxPoint x="401" y="154" as="sourcePoint" />
            <mxPoint x="486" y="234" as="targetPoint" />
            <Array as="points">
              <mxPoint x="441" y="159" />
              <mxPoint x="476" y="194" />
            </Array>
          </mxGeometry>
        </mxCell>
        <mxCell id="dRhbM2zjrjsyO_zI9-Dj-15" value="&lt;font style=&quot;font-size: 11px;&quot;&gt;counter == 39&lt;/font&gt;" style="text;strokeColor=none;align=center;fillColor=none;html=1;verticalAlign=middle;whiteSpace=wrap;rounded=0;fontColor=#1D3557;fontSize=11;" parent="1" vertex="1">
          <mxGeometry x="461" y="164" width="90" height="30" as="geometry" />
        </mxCell>
        <mxCell id="dRhbM2zjrjsyO_zI9-Dj-23" value="" style="curved=1;endArrow=classic;html=1;rounded=0;strokeColor=#457B9D;fontColor=#1D3557;fillColor=#A8DADC;exitX=0.187;exitY=0.103;exitDx=0;exitDy=0;entryX=0.746;entryY=0.087;entryDx=0;entryDy=0;entryPerimeter=0;exitPerimeter=0;" parent="1" source="dRhbM2zjrjsyO_zI9-Dj-31" target="dRhbM2zjrjsyO_zI9-Dj-31" edge="1">
          <mxGeometry width="50" height="50" relative="1" as="geometry">
            <mxPoint x="354.28999999999996" y="130.64999999999998" as="sourcePoint" />
            <mxPoint x="396.91999999999996" y="132.61" as="targetPoint" />
            <Array as="points">
              <mxPoint x="360.5" y="114" />
              <mxPoint x="390.5" y="114" />
            </Array>
          </mxGeometry>
        </mxCell>
        <mxCell id="dRhbM2zjrjsyO_zI9-Dj-24" value="&lt;span style=&quot;color: rgb(29, 53, 87); font-family: Helvetica; font-style: normal; font-variant-ligatures: normal; font-variant-caps: normal; font-weight: 400; letter-spacing: normal; orphans: 2; text-align: center; text-indent: 0px; text-transform: none; widows: 2; word-spacing: 0px; -webkit-text-stroke-width: 0px; background-color: rgb(251, 251, 251); text-decoration-thickness: initial; text-decoration-style: initial; text-decoration-color: initial; float: none; display: inline !important; font-size: 11px;&quot;&gt;&lt;font style=&quot;font-size: 11px;&quot;&gt;counter != 39&lt;/font&gt;&lt;/span&gt;" style="text;whiteSpace=wrap;html=1;fontColor=#1D3557;fontSize=11;" parent="1" vertex="1">
          <mxGeometry x="343" y="90" width="76" height="20" as="geometry" />
        </mxCell>
        <mxCell id="dRhbM2zjrjsyO_zI9-Dj-25" value="" style="curved=1;endArrow=classic;html=1;rounded=0;strokeColor=#457B9D;fontColor=#1D3557;fillColor=#A8DADC;entryX=1;entryY=0.5;entryDx=0;entryDy=0;exitX=0.5;exitY=1;exitDx=0;exitDy=0;strokeWidth=1;" parent="1" source="dRhbM2zjrjsyO_zI9-Dj-32" target="dRhbM2zjrjsyO_zI9-Dj-33" edge="1">
          <mxGeometry width="50" height="50" relative="1" as="geometry">
            <mxPoint x="486" y="304" as="sourcePoint" />
            <mxPoint x="401" y="369" as="targetPoint" />
            <Array as="points">
              <mxPoint x="481" y="334" />
              <mxPoint x="451" y="364" />
            </Array>
          </mxGeometry>
        </mxCell>
        <mxCell id="dRhbM2zjrjsyO_zI9-Dj-26" value="counter2 == 2" style="text;whiteSpace=wrap;fontColor=#1D3557;fontSize=11;" parent="1" vertex="1">
          <mxGeometry x="461" y="344" width="80" height="20" as="geometry" />
        </mxCell>
        <mxCell id="dRhbM2zjrjsyO_zI9-Dj-28" value="counter2 != 2" style="text;whiteSpace=wrap;fontColor=#1D3557;fontSize=11;" parent="1" vertex="1">
          <mxGeometry x="531" y="254" width="76" height="10" as="geometry" />
        </mxCell>
        <mxCell id="dRhbM2zjrjsyO_zI9-Dj-29" value="" style="curved=1;endArrow=classic;html=1;rounded=0;strokeColor=#457B9D;fontColor=#1D3557;fillColor=#A8DADC;exitX=0.933;exitY=0.226;exitDx=0;exitDy=0;entryX=0.954;entryY=0.754;entryDx=0;entryDy=0;entryPerimeter=0;exitPerimeter=0;" parent="1" source="dRhbM2zjrjsyO_zI9-Dj-32" target="dRhbM2zjrjsyO_zI9-Dj-32" edge="1">
          <mxGeometry width="50" height="50" relative="1" as="geometry">
            <mxPoint x="516.03" y="248.63000000000005" as="sourcePoint" />
            <mxPoint x="518.27" y="284.11999999999995" as="targetPoint" />
            <Array as="points">
              <mxPoint x="531" y="254" />
              <mxPoint x="531" y="274" />
            </Array>
          </mxGeometry>
        </mxCell>
        <mxCell id="dRhbM2zjrjsyO_zI9-Dj-31" value="INPUT" style="ellipse;whiteSpace=wrap;html=1;aspect=fixed;strokeColor=#457B9D;fontColor=#1D3557;fillColor=#A8DADC;" parent="1" vertex="1">
          <mxGeometry x="343" y="124" width="65" height="65" as="geometry" />
        </mxCell>
        <mxCell id="dRhbM2zjrjsyO_zI9-Dj-32" value="WAIT" style="ellipse;whiteSpace=wrap;html=1;aspect=fixed;strokeColor=#457B9D;fontColor=#1D3557;fillColor=#A8DADC;" parent="1" vertex="1">
          <mxGeometry x="451" y="234" width="65" height="65" as="geometry" />
        </mxCell>
        <mxCell id="dRhbM2zjrjsyO_zI9-Dj-33" value="FIND" style="ellipse;whiteSpace=wrap;html=1;aspect=fixed;strokeColor=#457B9D;fontColor=#1D3557;fillColor=#A8DADC;" parent="1" vertex="1">
          <mxGeometry x="371" y="334" width="65" height="65" as="geometry" />
        </mxCell>
        <mxCell id="dRhbM2zjrjsyO_zI9-Dj-34" value="CHECK" style="ellipse;whiteSpace=wrap;html=1;aspect=fixed;strokeColor=#457B9D;fontColor=#1D3557;fillColor=#A8DADC;" parent="1" vertex="1">
          <mxGeometry x="268.5" y="269" width="65" height="65" as="geometry" />
        </mxCell>
        <mxCell id="dRhbM2zjrjsyO_zI9-Dj-35" value="OUTPUT" style="ellipse;whiteSpace=wrap;html=1;aspect=fixed;strokeColor=#457B9D;fontColor=#1D3557;fillColor=#A8DADC;" parent="1" vertex="1">
          <mxGeometry x="230" y="160" width="65" height="65" as="geometry" />
        </mxCell>
        <mxCell id="U5NchHt8vb-dSEupGyIQ-1" value="" style="curved=1;endArrow=classic;html=1;rounded=0;strokeColor=#457B9D;fontColor=#1D3557;fillColor=#A8DADC;entryX=0.5;entryY=1;entryDx=0;entryDy=0;exitX=0;exitY=0.5;exitDx=0;exitDy=0;strokeWidth=1;" edge="1" parent="1" source="dRhbM2zjrjsyO_zI9-Dj-33" target="dRhbM2zjrjsyO_zI9-Dj-34">
          <mxGeometry width="50" height="50" relative="1" as="geometry">
            <mxPoint x="343" y="364" as="sourcePoint" />
            <mxPoint x="295" y="432" as="targetPoint" />
            <Array as="points">
              <mxPoint x="310" y="370" />
            </Array>
          </mxGeometry>
        </mxCell>
        <mxCell id="U5NchHt8vb-dSEupGyIQ-2" value="counter == 192" style="text;whiteSpace=wrap;fontColor=#1D3557;fontSize=11;" vertex="1" parent="1">
          <mxGeometry x="268.5" y="364" width="90" height="26" as="geometry" />
        </mxCell>
        <mxCell id="U5NchHt8vb-dSEupGyIQ-4" value="" style="curved=1;endArrow=classic;html=1;rounded=0;strokeColor=#457B9D;fontColor=#1D3557;fillColor=#A8DADC;entryX=0.357;entryY=0.969;entryDx=0;entryDy=0;strokeWidth=1;entryPerimeter=0;exitX=0.924;exitY=0.264;exitDx=0;exitDy=0;exitPerimeter=0;" edge="1" parent="1" source="dRhbM2zjrjsyO_zI9-Dj-33" target="dRhbM2zjrjsyO_zI9-Dj-32">
          <mxGeometry width="50" height="50" relative="1" as="geometry">
            <mxPoint x="420" y="330" as="sourcePoint" />
            <mxPoint x="466.9999999999998" y="290" as="targetPoint" />
            <Array as="points">
              <mxPoint x="430" y="340" />
              <mxPoint x="440" y="310" />
            </Array>
          </mxGeometry>
        </mxCell>
        <mxCell id="U5NchHt8vb-dSEupGyIQ-5" value="counter != 192" style="text;whiteSpace=wrap;fontColor=#1D3557;fontSize=10;" vertex="1" parent="1">
          <mxGeometry x="371" y="300" width="90" height="26" as="geometry" />
        </mxCell>
        <mxCell id="U5NchHt8vb-dSEupGyIQ-6" value="&lt;font style=&quot;font-size: 11px;&quot;&gt;(x1 == x_old) &amp;amp;&amp;amp; (y1 == y_old)&lt;/font&gt;" style="text;strokeColor=none;align=center;fillColor=none;html=1;verticalAlign=middle;whiteSpace=wrap;rounded=0;fontColor=#1D3557;fontSize=11;" vertex="1" parent="1">
          <mxGeometry x="90" y="269" width="160" height="16" as="geometry" />
        </mxCell>
        <mxCell id="U5NchHt8vb-dSEupGyIQ-7" value="" style="curved=1;endArrow=classic;html=1;rounded=0;strokeColor=#457B9D;fontColor=#1D3557;fillColor=#A8DADC;exitX=0;exitY=0.5;exitDx=0;exitDy=0;strokeWidth=1;entryX=0.458;entryY=0.969;entryDx=0;entryDy=0;entryPerimeter=0;" edge="1" parent="1" source="dRhbM2zjrjsyO_zI9-Dj-34" target="dRhbM2zjrjsyO_zI9-Dj-35">
          <mxGeometry width="50" height="50" relative="1" as="geometry">
            <mxPoint x="310" y="261" as="sourcePoint" />
            <mxPoint x="240" y="228" as="targetPoint" />
            <Array as="points">
              <mxPoint x="230" y="270" />
            </Array>
          </mxGeometry>
        </mxCell>
        <mxCell id="U5NchHt8vb-dSEupGyIQ-8" value="" style="curved=1;endArrow=classic;html=1;rounded=0;strokeColor=#457B9D;fontColor=#1D3557;fillColor=#A8DADC;strokeWidth=1;entryX=0;entryY=0.5;entryDx=0;entryDy=0;" edge="1" parent="1" source="dRhbM2zjrjsyO_zI9-Dj-34" target="dRhbM2zjrjsyO_zI9-Dj-32">
          <mxGeometry width="50" height="50" relative="1" as="geometry">
            <mxPoint x="372.5" y="300" as="sourcePoint" />
            <mxPoint x="363.5" y="221" as="targetPoint" />
            <Array as="points">
              <mxPoint x="360" y="240" />
            </Array>
          </mxGeometry>
        </mxCell>
        <mxCell id="U5NchHt8vb-dSEupGyIQ-10" value="&lt;font style=&quot;font-size: 8px;&quot;&gt;~( (x1 == x_old) &amp;amp;&amp;amp; (y1 == y_old) )&lt;/font&gt;" style="text;strokeColor=none;align=center;fillColor=none;html=1;verticalAlign=middle;whiteSpace=wrap;rounded=0;fontColor=#1D3557;fontSize=11;" vertex="1" parent="1">
          <mxGeometry x="316" y="234" width="130" height="19" as="geometry" />
        </mxCell>
        <mxCell id="U5NchHt8vb-dSEupGyIQ-12" value="" style="curved=1;endArrow=classic;html=1;rounded=0;strokeColor=#457B9D;fontColor=#1D3557;fillColor=#A8DADC;exitX=0.711;exitY=0.046;exitDx=0;exitDy=0;strokeWidth=1;exitPerimeter=0;" edge="1" parent="1" source="dRhbM2zjrjsyO_zI9-Dj-35" target="dRhbM2zjrjsyO_zI9-Dj-31">
          <mxGeometry width="50" height="50" relative="1" as="geometry">
            <mxPoint x="329" y="169" as="sourcePoint" />
            <mxPoint x="320" y="90" as="targetPoint" />
            <Array as="points">
              <mxPoint x="300" y="130" />
            </Array>
          </mxGeometry>
        </mxCell>
        <mxCell id="U5NchHt8vb-dSEupGyIQ-13" value="if current state == OUTPUT&amp;nbsp;&lt;br style=&quot;font-size: 8px;&quot;&gt;&lt;b&gt;DONE = 1&amp;nbsp;&lt;/b&gt;" style="text;html=1;align=center;verticalAlign=middle;resizable=0;points=[];autosize=1;strokeColor=none;fillColor=none;fontSize=8;fontColor=#0000FF;" vertex="1" parent="1">
          <mxGeometry x="130" y="150" width="120" height="30" as="geometry" />
        </mxCell>
      </root>
    </mxGraphModel>
  </diagram>
</mxfile>
